<svg class="main-svg" xmlns="http://www.w3.org/2000/svg" xmlns:xlink="http://www.w3.org/1999/xlink" width="1600" height="900" style="" viewBox="0 0 1600 900"><rect x="0" y="0" width="1600" height="900" style="fill: rgb(0, 0, 0); fill-opacity: 0;"/><defs id="defs-90879e"><g class="clips"><clipPath id="clip90879exyplot" class="plotclip"><rect width="1520" height="800"/></clipPath><clipPath class="axesclip" id="clip90879ex"><rect x="40" y="0" width="1520" height="900"/></clipPath><clipPath class="axesclip" id="clip90879ey"><rect x="0" y="60" width="1600" height="800"/></clipPath><clipPath class="axesclip" id="clip90879exy"><rect x="40" y="60" width="1520" height="800"/></clipPath></g><g class="gradients"/><g class="patterns"/></defs><g class="bglayer"><rect class="bg" x="40" y="60" width="1520" height="800" style="fill: rgb(0, 0, 0); fill-opacity: 0; stroke-width: 0;"/></g><g class="layer-below"><g class="imagelayer"/><g class="shapelayer"/></g><g class="cartesianlayer"><g class="subplot xy"><g class="layer-subplot"><g class="shapelayer"/><g class="imagelayer"/></g><g class="minor-gridlayer"><g class="x"/><g class="y"/></g><g class="gridlayer"><g class="x"/><g class="y"/></g><g class="zerolinelayer"/><g class="layer-between"><g class="shapelayer"/><g class="imagelayer"/></g><path class="xlines-below"/><path class="ylines-below"/><g class="overlines-below"/><g class="xaxislayer-below"/><g class="yaxislayer-below"/><g class="overaxes-below"/><g class="overplot"><g class="xy" transform="translate(40,60)" clip-path="url(#clip90879exyplot)"><g class="scatterlayer mlayer"><g class="trace scatter trace3430b3" style="stroke-miterlimit: 2; opacity: 1;"><g class="fills"/><g class="errorbars"/><g class="lines"><path class="js-line" d="M826.67,400L825.85,389.57L825.65,388.42L823.03,378.3L822.65,377.2L818.31,367.68L817.74,366.67L811.81,358.05L811.07,357.15L803.74,349.69L802.85,348.93L794.34,342.86L793.33,342.26L783.89,337.76L782.8,337.35L772.72,334.56L771.58,334.35L762.33,333.37L761.16,333.34L750.72,333.98L749.57,334.15L739.4,336.6L738.3,336.97L729.73,340.6L728.7,341.14L720.81,346.07L719.88,346.76L712.04,353.69L711.24,354.53L704.73,362.72L704.09,363.69L699.58,371.83L699.1,372.88L695.92,381.62L695.6,382.75L693.7,393.03L693.59,394.19L693.5,404.65L693.59,405.81L695.31,416.13L695.6,417.25L699.1,427.12L699.58,428.17L704.73,437.28L705.39,438.24L712.04,446.31L712.86,447.14L719.88,453.24L720.81,453.93L729.73,459.4L730.78,459.92L740.51,463.75L741.62,464.08L750.72,466.02L751.88,466.17L762.33,466.63L763.49,466.58L773.86,465.21L775,464.96L784.97,461.81L786.05,461.37L795.33,456.54L796.31,455.91L804.61,449.54L805.47,448.76L812.53,441.04L813.24,440.12L818.86,431.3L819.4,430.27L823.4,420.6L823.75,419.49L826.02,409.28L826.17,408.12L826.67,400" style="vector-effect: none; fill: none; stroke: rgb(0, 0, 0); stroke-opacity: 1; stroke-width: 1px; opacity: 1;"/></g><g class="points"/><g class="text"/></g><g class="trace scatter trace9ec829" style="stroke-miterlimit: 2; opacity: 1;"><g class="fills"/><g class="errorbars"/><g class="lines"><path class="js-line" d="M893.33,400L892.6,386.06L892.34,383.75L889.92,370.01L889.37,367.74L885.29,354.4L884.48,352.22L878.8,339.47L877.73,337.4L870.54,325.44L869.22,323.52L860.63,312.53L859.09,310.78L849.22,300.91L847.47,299.37L836.48,290.78L834.56,289.46L822.6,282.27L820.53,281.2L807.78,275.52L805.6,274.71L792.26,270.63L789.99,270.08L776.25,267.66L773.94,267.4L760,266.67L757.67,266.69L743.75,267.66L741.44,267.96L727.74,270.63L725.49,271.21L712.22,275.52L710.05,276.38L697.4,282.27L695.36,283.38L683.52,290.78L681.63,292.13L670.78,300.91L669.07,302.49L659.37,312.53L657.86,314.29L649.46,325.44L648.18,327.38L641.2,339.47L640.16,341.55L634.71,354.4L633.93,356.59L630.08,370.01L629.58,372.28L627.4,386.06L627.17,388.38L626.69,402.33L626.75,404.65L627.96,418.56L628.31,420.86L631.21,434.51L631.83,436.75L636.38,449.95L637.27,452.1L643.38,464.64L644.53,466.67L652.13,478.37L653.52,480.24L662.49,490.93L664.09,492.62L674.29,502.14L676.09,503.62L687.38,511.82L689.34,513.07L701.55,519.84L703.65,520.84L716.59,526.07L718.8,526.81L732.28,530.42L734.56,530.88L748.38,532.83L750.7,533.01L764.65,533.25L766.98,533.15L780.86,531.69L783.15,531.31L796.75,528.17L798.98,527.51L812.1,522.73L814.23,521.81L826.67,515.47L828.67,514.29L840.24,506.48L842.09,505.07L852.62,495.91L854.28,494.28L863.62,483.91L865.07,482.09L873.07,470.66L874.29,468.67L880.84,456.35L881.81,454.23L886.81,441.2L887.51,438.98L890.88,425.44L891.31,423.15L893.01,409.3L893.15,406.98L893.33,400" style="vector-effect: none; fill: none; stroke: rgb(0, 0, 0); stroke-opacity: 1; stroke-width: 1px; opacity: 1;"/></g><g class="points"/><g class="text"/></g><g class="trace scatter traceb30f63" style="stroke-miterlimit: 2; opacity: 1;"><g class="fills"/><g class="errorbars"/><g class="lines"><path class="js-line" d="M960,400L959.24,382.57L958.9,379.09L956.33,361.84L955.63,358.42L951.26,341.53L950.21,338.2L944.1,321.85L942.71,318.65L934.92,303.04L933.21,300L923.83,285.28L921.8,282.44L910.94,268.79L908.63,266.17L896.4,253.73L893.83,251.37L880.36,240.27L877.56,238.2L863.01,228.57L860,226.79L844.52,218.74L841.35,217.29L825.11,210.9L821.8,209.79L804.99,205.13L801.58,204.37L784.37,201.49L780.91,201.1L763.49,200.03L760,200L742.57,200.76L739.09,201.1L721.84,203.67L718.42,204.37L701.53,208.74L698.2,209.79L681.85,215.9L678.65,217.29L663.04,225.08L660,226.79L645.28,236.17L642.44,238.2L628.79,249.06L626.17,251.37L613.73,263.6L611.37,266.17L600.27,279.64L598.2,282.44L588.57,296.99L586.79,300L578.74,315.48L577.29,318.65L570.9,334.89L569.79,338.2L565.13,355.01L564.37,358.42L561.49,375.63L561.1,379.09L560.03,396.51L560,400L560.76,417.43L561.1,420.91L563.67,438.16L564.37,441.58L568.74,458.47L569.79,461.8L575.9,478.15L577.29,481.35L585.08,496.96L586.79,500L596.17,514.72L598.2,517.56L609.06,531.21L611.37,533.83L623.6,546.27L626.17,548.63L639.64,559.73L642.44,561.8L656.99,571.43L660,573.21L675.48,581.26L678.65,582.71L694.89,589.1L698.2,590.21L715.01,594.87L718.42,595.63L735.63,598.51L739.09,598.9L756.51,599.97L760,600L777.43,599.24L780.91,598.9L798.16,596.33L801.58,595.63L818.47,591.26L821.8,590.21L838.15,584.1L841.35,582.71L856.96,574.92L860,573.21L874.72,563.83L877.56,561.8L891.21,550.94L893.83,548.63L906.27,536.4L908.63,533.83L919.73,520.36L921.8,517.56L931.43,503.01L933.21,500L941.26,484.52L942.71,481.35L949.1,465.11L950.21,461.8L954.87,444.99L955.63,441.58L958.51,424.37L958.9,420.91L959.97,403.49L960,400" style="vector-effect: none; fill: none; stroke: rgb(0, 0, 0); stroke-opacity: 1; stroke-width: 1px; opacity: 1;"/></g><g class="points"/><g class="text"/></g><g class="trace scatter trace846902" style="stroke-miterlimit: 2; opacity: 1;"><g class="fills"/><g class="errorbars"/><g class="lines"><path class="js-line" d="M1026.67,400L1026.02,381.4L1025.65,376.76L1023.38,358.28L1022.62,353.69L1018.75,335.49L1017.58,330.98L1012.14,313.18L1010.58,308.79L1003.61,291.54L1001.68,287.3L993.23,270.72L990.94,266.67L981.08,250.88L978.44,247.05L967.24,232.18L964.28,228.59L951.82,214.76L948.56,211.44L934.95,198.74L931.41,195.72L916.74,184.26L912.95,181.56L897.34,171.42L893.33,169.06L876.9,160.32L872.7,158.32L855.56,151.05L851.21,149.42L833.5,143.66L829.02,142.42L810.88,138.23L806.31,137.38L787.87,134.79L783.24,134.35L764.65,133.37L760,133.33L741.4,133.98L736.76,134.35L718.28,136.62L713.69,137.38L695.49,141.25L690.98,142.42L673.18,147.86L668.79,149.42L651.54,156.39L647.3,158.32L630.72,166.77L626.67,169.06L610.88,178.92L607.05,181.56L592.18,192.76L588.59,195.72L574.76,208.18L571.44,211.44L558.74,225.05L555.72,228.59L544.26,243.26L541.56,247.05L531.42,262.66L529.06,266.67L520.32,283.1L518.32,287.3L511.05,304.44L509.42,308.79L503.66,326.5L502.42,330.98L498.23,349.12L497.38,353.69L494.79,372.13L494.35,376.76L493.37,395.35L493.33,400L493.98,418.6L494.35,423.24L496.62,441.72L497.38,446.31L501.25,464.51L502.42,469.02L507.86,486.82L509.42,491.21L516.39,508.46L518.32,512.7L526.77,529.28L529.06,533.33L538.92,549.12L541.56,552.95L552.76,567.82L555.72,571.41L568.18,585.24L571.44,588.56L585.05,601.26L588.59,604.28L603.26,615.74L607.05,618.44L622.66,628.58L626.67,630.94L643.1,639.68L647.3,641.68L664.44,648.95L668.79,650.58L686.5,656.34L690.98,657.58L709.12,661.77L713.69,662.62L732.13,665.21L736.76,665.65L755.35,666.63L760,666.67L778.6,666.02L783.24,665.65L801.72,663.38L806.31,662.62L824.51,658.75L829.02,657.58L846.82,652.14L851.21,650.58L868.46,643.61L872.7,641.68L889.28,633.23L893.33,630.94L909.12,621.08L912.95,618.44L927.82,607.24L931.41,604.28L945.24,591.82L948.56,588.56L961.26,574.95L964.28,571.41L975.74,556.74L978.44,552.95L988.58,537.34L990.94,533.33L999.68,516.9L1001.68,512.7L1008.95,495.56L1010.58,491.21L1016.34,473.5L1017.58,469.02L1021.77,450.88L1022.62,446.31L1025.21,427.87L1025.65,423.24L1026.63,404.65L1026.67,400" style="vector-effect: none; fill: none; stroke: rgb(0, 0, 0); stroke-opacity: 1; stroke-width: 1px; opacity: 1;"/></g><g class="points"/><g class="text"/></g><g class="trace scatter trace9e2833" style="stroke-miterlimit: 2; opacity: 1;"><g class="fills"/><g class="errorbars"/><g class="lines"><path class="js-line" d="M1093.33,400L1092.52,376.75L1092.06,370.95L1089.23,347.86L1088.27,342.12L1083.43,319.36L1081.98,313.73L1075.17,291.48L1073.23,285.99L1064.52,264.42L1062.1,259.13L1051.54,238.4L1048.68,233.33L1036.35,213.6L1033.05,208.81L1019.05,190.23L1015.35,185.74L999.78,168.45L995.7,164.3L978.69,148.43L974.26,144.65L955.93,130.33L951.19,126.95L931.68,114.28L926.67,111.32L906.12,100.4L900.87,97.9L879.46,88.81L874.01,86.77L851.88,79.58L846.27,78.02L823.6,72.79L817.88,71.73L794.84,68.49L789.05,67.94L765.82,66.72L760,66.67L736.75,67.48L730.95,67.94L707.86,70.77L702.12,71.73L679.36,76.57L673.73,78.02L651.48,84.83L645.99,86.77L624.42,95.48L619.13,97.9L598.4,108.46L593.33,111.32L573.6,123.65L568.81,126.95L550.23,140.95L545.74,144.65L528.45,160.22L524.3,164.3L508.43,181.31L504.65,185.74L490.33,204.07L486.95,208.81L474.28,228.32L471.32,233.33L460.4,253.88L457.9,259.13L448.81,280.54L446.77,285.99L439.58,308.12L438.02,313.73L432.79,336.4L431.73,342.12L428.49,365.16L427.94,370.95L426.72,394.18L426.67,400L427.48,423.25L427.94,429.05L430.77,452.14L431.73,457.88L436.57,480.64L438.02,486.27L444.83,508.52L446.77,514.01L455.48,535.58L457.9,540.87L468.46,561.6L471.32,566.67L483.65,586.4L486.95,591.19L500.95,609.77L504.65,614.26L520.22,631.55L524.3,635.7L541.31,651.57L545.74,655.35L564.07,669.67L568.81,673.05L588.32,685.72L593.33,688.68L613.88,699.6L619.13,702.1L640.54,711.19L645.99,713.23L668.12,720.42L673.73,721.98L696.4,727.21L702.12,728.27L725.16,731.51L730.95,732.06L754.18,733.28L760,733.33L783.25,732.52L789.05,732.06L812.14,729.23L817.88,728.27L840.64,723.43L846.27,721.98L868.52,715.17L874.01,713.23L895.58,704.52L900.87,702.1L921.6,691.54L926.67,688.68L946.4,676.35L951.19,673.05L969.77,659.05L974.26,655.35L991.55,639.78L995.7,635.7L1011.57,618.69L1015.35,614.26L1029.67,595.93L1033.05,591.19L1045.72,571.68L1048.68,566.67L1059.6,546.12L1062.1,540.87L1071.19,519.46L1073.23,514.01L1080.42,491.88L1081.98,486.27L1087.21,463.6L1088.27,457.88L1091.51,434.84L1092.06,429.05L1093.28,405.82L1093.33,400" style="vector-effect: none; fill: none; stroke: rgb(0, 0, 0); stroke-opacity: 1; stroke-width: 1px; opacity: 1;"/></g><g class="points"/><g class="text"/></g><g class="trace scatter tracee91cfa" style="stroke-miterlimit: 2; opacity: 1;"><g class="fills"/><g class="errorbars"/><g class="lines"><path class="js-line" d="M760,400L1093.33,400" style="vector-effect: none; fill: none; stroke: rgb(0, 0, 0); stroke-opacity: 1; stroke-width: 1px; opacity: 1;"/></g><g class="points"/><g class="text"/></g><g class="trace scatter tracea1c754" style="stroke-miterlimit: 2; opacity: 1;"><g class="fills"/><g class="errorbars"/><g class="lines"/><g class="points"/><g class="text"><g class="textpoint" transform="translate(0,3.5)"><text x="1126.67" y="400" text-anchor="middle" style="font-family: 'Open Sans', verdana, arial, sans-serif; font-size: 14px; fill: rgb(0, 0, 0); fill-opacity: 1; white-space: pre;">D1</text></g></g></g><g class="trace scatter traceb50004" style="stroke-miterlimit: 2; opacity: 1;"><g class="fills"/><g class="errorbars"/><g class="lines"><path class="js-line" d="M760,400L863.01,82.98" style="vector-effect: none; fill: none; stroke: rgb(0, 0, 0); stroke-opacity: 1; stroke-width: 1px; opacity: 1;"/></g><g class="points"/><g class="text"/></g><g class="trace scatter tracef3672e" style="stroke-miterlimit: 2; opacity: 1;"><g class="fills"/><g class="errorbars"/><g class="lines"/><g class="points"/><g class="text"><g class="textpoint" transform="translate(0,3.5)"><text x="873.31" y="51.28" text-anchor="middle" style="font-family: 'Open Sans', verdana, arial, sans-serif; font-size: 14px; fill: rgb(0, 0, 0); fill-opacity: 1; white-space: pre;">D2</text></g></g></g><g class="trace scatter trace4f3d3b" style="stroke-miterlimit: 2; opacity: 1;"><g class="fills"/><g class="errorbars"/><g class="lines"><path class="js-line" d="M760,400L490.33,204.07" style="vector-effect: none; fill: none; stroke: rgb(0, 0, 0); stroke-opacity: 1; stroke-width: 1px; opacity: 1;"/></g><g class="points"/><g class="text"/></g><g class="trace scatter traceb43216" style="stroke-miterlimit: 2; opacity: 1;"><g class="fills"/><g class="errorbars"/><g class="lines"/><g class="points"/><g class="text"><g class="textpoint" transform="translate(0,3.5)"><text x="463.36" y="184.48" text-anchor="middle" style="font-family: 'Open Sans', verdana, arial, sans-serif; font-size: 14px; fill: rgb(0, 0, 0); fill-opacity: 1; white-space: pre;">D3</text></g></g></g><g class="trace scatter trace62ad5f" style="stroke-miterlimit: 2; opacity: 1;"><g class="fills"/><g class="errorbars"/><g class="lines"><path class="js-line" d="M760,400L490.33,595.93" style="vector-effect: none; fill: none; stroke: rgb(0, 0, 0); stroke-opacity: 1; stroke-width: 1px; opacity: 1;"/></g><g class="points"/><g class="text"/></g><g class="trace scatter trace4eccbe" style="stroke-miterlimit: 2; opacity: 1;"><g class="fills"/><g class="errorbars"/><g class="lines"/><g class="points"/><g class="text"><g class="textpoint" transform="translate(0,3.5)"><text x="463.36" y="615.52" text-anchor="middle" style="font-family: 'Open Sans', verdana, arial, sans-serif; font-size: 14px; fill: rgb(0, 0, 0); fill-opacity: 1; white-space: pre;">D4</text></g></g></g><g class="trace scatter trace9d3e6a" style="stroke-miterlimit: 2; opacity: 1;"><g class="fills"/><g class="errorbars"/><g class="lines"><path class="js-line" d="M760,400L863.01,717.02" style="vector-effect: none; fill: none; stroke: rgb(0, 0, 0); stroke-opacity: 1; stroke-width: 1px; opacity: 1;"/></g><g class="points"/><g class="text"/></g><g class="trace scatter trace9e943a" style="stroke-miterlimit: 2; opacity: 1;"><g class="fills"/><g class="errorbars"/><g class="lines"/><g class="points"/><g class="text"><g class="textpoint" transform="translate(0,3.5)"><text x="873.31" y="748.72" text-anchor="middle" style="font-family: 'Open Sans', verdana, arial, sans-serif; font-size: 14px; fill: rgb(0, 0, 0); fill-opacity: 1; white-space: pre;">D5</text></g></g></g><g class="trace scatter trace76160b" style="stroke-miterlimit: 2; opacity: 1;"><g class="fills"/><g class="errorbars"/><g class="lines"/><g class="points"/><g class="text"><g class="textpoint" transform="translate(0,3)"><text x="770" y="333.33" text-anchor="middle" style="font-family: 'Open Sans', verdana, arial, sans-serif; font-size: 12px; fill: rgb(0, 0, 0); fill-opacity: 1; white-space: pre;">1</text></g></g></g><g class="trace scatter trace66762c" style="stroke-miterlimit: 2; opacity: 1;"><g class="fills"/><g class="errorbars"/><g class="lines"/><g class="points"/><g class="text"><g class="textpoint" transform="translate(0,3)"><text x="770" y="266.67" text-anchor="middle" style="font-family: 'Open Sans', verdana, arial, sans-serif; font-size: 12px; fill: rgb(0, 0, 0); fill-opacity: 1; white-space: pre;">2</text></g></g></g><g class="trace scatter trace805b30" style="stroke-miterlimit: 2; opacity: 1;"><g class="fills"/><g class="errorbars"/><g class="lines"/><g class="points"/><g class="text"><g class="textpoint" transform="translate(0,3)"><text x="770" y="200" text-anchor="middle" style="font-family: 'Open Sans', verdana, arial, sans-serif; font-size: 12px; fill: rgb(0, 0, 0); fill-opacity: 1; white-space: pre;">3</text></g></g></g><g class="trace scatter trace1a493a" style="stroke-miterlimit: 2; opacity: 1;"><g class="fills"/><g class="errorbars"/><g class="lines"/><g class="points"/><g class="text"><g class="textpoint" transform="translate(0,3)"><text x="770" y="133.33" text-anchor="middle" style="font-family: 'Open Sans', verdana, arial, sans-serif; font-size: 12px; fill: rgb(0, 0, 0); fill-opacity: 1; white-space: pre;">4</text></g></g></g><g class="trace scatter tracec44a20" style="stroke-miterlimit: 2; opacity: 1;"><g class="fills"/><g class="errorbars"/><g class="lines"/><g class="points"/><g class="text"><g class="textpoint" transform="translate(0,3)"><text x="770" y="66.67" text-anchor="middle" style="font-family: 'Open Sans', verdana, arial, sans-serif; font-size: 12px; fill: rgb(0, 0, 0); fill-opacity: 1; white-space: pre;">5</text></g></g></g><g class="trace scatter trace737db4" style="stroke-miterlimit: 2; opacity: 1;"><g class="fills"><g><path class="js-fill" d="M969.51,400L825.56,198.22L590.8,277.07L588.56,524.56L825.56,601.77L969.51,400L946.35,400L818.4,579.73L607.38,510.89L608.79,290.14L818.81,218.99L946.35,400Z" style="fill: rgb(201, 162, 39); fill-opacity: 0.15; stroke-width: 0;"/></g></g><g class="errorbars"/><g class="lines"><path class="js-line" d="M969.51,400L825.56,198.22L590.8,277.07L588.56,524.56L825.56,601.77L969.51,400L946.35,400L818.4,579.73L607.38,510.89L608.79,290.14L818.81,218.99L946.35,400" style="vector-effect: none; fill: none; stroke: rgb(0, 0, 0); stroke-opacity: 0; stroke-width: 0px; opacity: 1;"/></g><g class="points"><path class="point" transform="translate(969.51,400)" d="M3,0A3,3 0 1,1 0,-3A3,3 0 0,1 3,0Z" style="opacity: 1; stroke-width: 0px; fill: rgb(0, 0, 0); fill-opacity: 0;"/><path class="point" transform="translate(825.56,198.22)" d="M3,0A3,3 0 1,1 0,-3A3,3 0 0,1 3,0Z" style="opacity: 1; stroke-width: 0px; fill: rgb(0, 0, 0); fill-opacity: 0;"/><path class="point" transform="translate(590.8,277.07)" d="M3,0A3,3 0 1,1 0,-3A3,3 0 0,1 3,0Z" style="opacity: 1; stroke-width: 0px; fill: rgb(0, 0, 0); fill-opacity: 0;"/><path class="point" transform="translate(588.56,524.56)" d="M3,0A3,3 0 1,1 0,-3A3,3 0 0,1 3,0Z" style="opacity: 1; stroke-width: 0px; fill: rgb(0, 0, 0); fill-opacity: 0;"/><path class="point" transform="translate(825.56,601.77)" d="M3,0A3,3 0 1,1 0,-3A3,3 0 0,1 3,0Z" style="opacity: 1; stroke-width: 0px; fill: rgb(0, 0, 0); fill-opacity: 0;"/><path class="point" transform="translate(969.51,400)" d="M3,0A3,3 0 1,1 0,-3A3,3 0 0,1 3,0Z" style="opacity: 1; stroke-width: 0px; fill: rgb(0, 0, 0); fill-opacity: 0;"/><path class="point" transform="translate(946.35,400)" d="M3,0A3,3 0 1,1 0,-3A3,3 0 0,1 3,0Z" style="opacity: 1; stroke-width: 0px; fill: rgb(0, 0, 0); fill-opacity: 0;"/><path class="point" transform="translate(818.4,579.73)" d="M3,0A3,3 0 1,1 0,-3A3,3 0 0,1 3,0Z" style="opacity: 1; stroke-width: 0px; fill: rgb(0, 0, 0); fill-opacity: 0;"/><path class="point" transform="translate(607.38,510.89)" d="M3,0A3,3 0 1,1 0,-3A3,3 0 0,1 3,0Z" style="opacity: 1; stroke-width: 0px; fill: rgb(0, 0, 0); fill-opacity: 0;"/><path class="point" transform="translate(608.79,290.14)" d="M3,0A3,3 0 1,1 0,-3A3,3 0 0,1 3,0Z" style="opacity: 1; stroke-width: 0px; fill: rgb(0, 0, 0); fill-opacity: 0;"/><path class="point" transform="translate(818.81,218.99)" d="M3,0A3,3 0 1,1 0,-3A3,3 0 0,1 3,0Z" style="opacity: 1; stroke-width: 0px; fill: rgb(0, 0, 0); fill-opacity: 0;"/><path class="point" transform="translate(946.35,400)" d="M3,0A3,3 0 1,1 0,-3A3,3 0 0,1 3,0Z" style="opacity: 1; stroke-width: 0px; fill: rgb(0, 0, 0); fill-opacity: 0;"/></g><g class="text"/></g><g class="trace scatter trace251682" style="stroke-miterlimit: 2; opacity: 1;"><g class="fills"><g><path class="js-fill" d="M957.93,400L822.19,208.61L599.8,283.61L597.97,517.72L821.98,590.75L957.93,400Z" style="fill: rgb(201, 162, 39); fill-opacity: 0.1; stroke-width: 0;"/></g></g><g class="errorbars"/><g class="lines"><path class="js-line" d="M957.93,400L822.19,208.61L599.8,283.61L597.97,517.72L821.98,590.75L957.93,400" style="vector-effect: none; fill: none; stroke: rgb(201, 162, 39); stroke-opacity: 1; stroke-width: 2.5px; opacity: 1;"/></g><g class="points"/><g class="text"/></g><g class="trace scatter trace7b02e5" style="stroke-miterlimit: 2; opacity: 1;"><g class="fills"><g><path class="js-fill" d="M954.64,400L819.67,216.35L598.66,282.78L598.2,517.56L821.33,588.75L954.64,400Z" style="fill: rgb(0, 51, 102); fill-opacity: 0.12; stroke-width: 0;"/></g></g><g class="errorbars"/><g class="lines"><path class="js-line" d="M954.64,400L819.67,216.35L598.66,282.78L598.2,517.56L821.33,588.75L954.64,400" style="vector-effect: none; fill: none; stroke: rgb(0, 51, 102); stroke-opacity: 1; stroke-width: 3px; opacity: 1;"/></g><g class="points"/><g class="text"/></g></g></g></g><g class="zerolinelayer-above"/><path class="xlines-above crisp" d="M0,0" style="fill: none;"/><path class="ylines-above crisp" d="M0,0" style="fill: none;"/><g class="overlines-above"/><g class="xaxislayer-above"/><g class="yaxislayer-above"/><g class="overaxes-above"/></g></g><g class="polarlayer"/><g class="smithlayer"/><g class="ternarylayer"/><g class="geolayer"/><g class="funnelarealayer"/><g class="pielayer"/><g class="iciclelayer"/><g class="treemaplayer"/><g class="sunburstlayer"/><g class="glimages"/><defs id="topdefs-90879e"><g class="clips"/><clipPath id="legend90879e"><rect width="455" height="29" x="0" y="0"/></clipPath></defs><g class="layer-above"><g class="imagelayer"/><g class="shapelayer"/></g><g class="infolayer"><g class="legend" pointer-events="all" transform="translate(572.5,14.999999999999986)"><rect class="bg" shape-rendering="crispEdges" style="stroke: rgb(68, 68, 68); stroke-opacity: 1; fill: rgb(0, 0, 0); fill-opacity: 0; stroke-width: 0px;" width="455" height="29" x="0" y="0"/><g class="scrollbox" transform="" clip-path="url(#legend90879e)"><g class="groups"><g class="traces" transform="translate(0,14.5)" style="opacity: 1;"><text class="legendtext" text-anchor="start" x="40" y="4.680000000000001" style="font-family: 'Open Sans', verdana, arial, sans-serif; font-size: 12px; fill: rgb(0, 0, 0); fill-opacity: 1; white-space: pre;">Institutional 95% CI</text><g class="layers" style="opacity: 1;"><g class="legendfill"><path class="js-fill" d="M5,0h30v6h-30z" style="stroke-width: 0; fill: rgb(201, 162, 39); fill-opacity: 0.15;"/></g><g class="legendlines"><path class="js-line" d="M5,0h30" style="fill: none; stroke: rgb(0, 0, 0); stroke-opacity: 0; stroke-width: 0px;"/></g><g class="legendsymbols"><g class="legendpoints"><path class="scatterpts" transform="translate(20,0)" d="M3,0A3,3 0 1,1 0,-3A3,3 0 0,1 3,0Z" style="opacity: 1; stroke-width: 0px; fill: rgb(0, 0, 0); fill-opacity: 0;"/></g></g></g><rect class="legendtoggle" x="0" y="-9.5" width="165.1875" height="19" style="fill: rgb(0, 0, 0); fill-opacity: 0;"/></g><g class="traces" transform="translate(167.6875,14.5)" style="opacity: 1;"><text class="legendtext" text-anchor="start" x="40" y="4.680000000000001" style="font-family: 'Open Sans', verdana, arial, sans-serif; font-size: 12px; fill: rgb(0, 0, 0); fill-opacity: 1; white-space: pre;">Institutional Mean</text><g class="layers" style="opacity: 1;"><g class="legendfill"><path class="js-fill" d="M5,-2h30v6h-30z" style="stroke-width: 0; fill: rgb(201, 162, 39); fill-opacity: 0.1;"/></g><g class="legendlines"><path class="js-line" d="M5,-2h30" style="fill: none; stroke: rgb(201, 162, 39); stroke-opacity: 1; stroke-width: 2.5px;"/></g><g class="legendsymbols"><g class="legendpoints"/></g></g><rect class="legendtoggle" x="0" y="-9.5" width="151.421875" height="19" style="fill: rgb(0, 0, 0); fill-opacity: 0;"/></g><g class="traces" transform="translate(321.609375,14.5)" style="opacity: 1;"><text class="legendtext" text-anchor="start" x="40" y="4.680000000000001" style="font-family: 'Open Sans', verdana, arial, sans-serif; font-size: 12px; fill: rgb(0, 0, 0); fill-opacity: 1; white-space: pre;">demo_prof_04</text><g class="layers" style="opacity: 1;"><g class="legendfill"><path class="js-fill" d="M5,-2h30v6h-30z" style="stroke-width: 0; fill: rgb(0, 51, 102); fill-opacity: 0.12;"/></g><g class="legendlines"><path class="js-line" d="M5,-2h30" style="fill: none; stroke: rgb(0, 51, 102); stroke-opacity: 1; stroke-width: 3px;"/></g><g class="legendsymbols"><g class="legendpoints"/></g></g><rect class="legendtoggle" x="0" y="-9.5" width="130.703125" height="19" style="fill: rgb(0, 0, 0); fill-opacity: 0;"/></g></g></g><rect class="scrollbar" rx="20" ry="3" width="0" height="0" style="fill: rgb(128, 139, 164); fill-opacity: 1;" x="0" y="0"/></g><g class="g-gtitle"/></g></svg>