<svg class="main-svg" xmlns="http://www.w3.org/2000/svg" xmlns:xlink="http://www.w3.org/1999/xlink" width="1600" height="900" style="" viewBox="0 0 1600 900"><rect x="0" y="0" width="1600" height="900" style="fill: rgb(0, 0, 0); fill-opacity: 0;"/><defs id="defs-b0eef7"><g class="clips"><clipPath id="clipb0eef7xyplot" class="plotclip"><rect width="1497" height="783"/></clipPath><clipPath class="axesclip" id="clipb0eef7x"><rect x="63" y="0" width="1497" height="900"/></clipPath><clipPath class="axesclip" id="clipb0eef7y"><rect x="0" y="60" width="1600" height="783"/></clipPath><clipPath class="axesclip" id="clipb0eef7xy"><rect x="63" y="60" width="1497" height="783"/></clipPath></g><g class="gradients"/><g class="patterns"/></defs><g class="bglayer"><rect class="bg" x="63" y="60" width="1497" height="783" style="fill: rgb(0, 0, 0); fill-opacity: 0; stroke-width: 0;"/></g><g class="layer-below"><g class="imagelayer"/><g class="shapelayer"/></g><g class="cartesianlayer"><g class="subplot xy"><g class="layer-subplot"><g class="shapelayer"/><g class="imagelayer"/></g><g class="minor-gridlayer"><g class="x"/><g class="y"/></g><g class="gridlayer"><g class="x"/><g class="y"><path class="ygrid crisp" transform="translate(0,731.5)" d="M63,0h1497" style="stroke: rgb(211, 211, 211); stroke-opacity: 1; stroke-width: 1px;"/><path class="ygrid crisp" transform="translate(0,620)" d="M63,0h1497" style="stroke: rgb(211, 211, 211); stroke-opacity: 1; stroke-width: 1px;"/><path class="ygrid crisp" transform="translate(0,508.51)" d="M63,0h1497" style="stroke: rgb(211, 211, 211); stroke-opacity: 1; stroke-width: 1px;"/><path class="ygrid crisp" transform="translate(0,397.01)" d="M63,0h1497" style="stroke: rgb(211, 211, 211); stroke-opacity: 1; stroke-width: 1px;"/><path class="ygrid crisp" transform="translate(0,285.51)" d="M63,0h1497" style="stroke: rgb(211, 211, 211); stroke-opacity: 1; stroke-width: 1px;"/><path class="ygrid crisp" transform="translate(0,174.01)" d="M63,0h1497" style="stroke: rgb(211, 211, 211); stroke-opacity: 1; stroke-width: 1px;"/><path class="ygrid crisp" transform="translate(0,62.51)" d="M63,0h1497" style="stroke: rgb(211, 211, 211); stroke-opacity: 1; stroke-width: 1px;"/></g></g><g class="zerolinelayer"><path class="yzl zl crisp" transform="translate(0,843)" d="M63,0h1497" style="stroke: rgb(255, 255, 255); stroke-opacity: 1; stroke-width: 2px;"/></g><g class="layer-between"><g class="shapelayer"/><g class="imagelayer"/></g><path class="xlines-below"/><path class="ylines-below"/><g class="overlines-below"/><g class="xaxislayer-below"/><g class="yaxislayer-below"/><g class="overaxes-below"/><g class="overplot"><g class="xy" transform="translate(63,60)" clip-path="url(#clipb0eef7xyplot)"><g class="barlayer mlayer"><g class="trace bars" style="opacity: 1;"><g class="points"><g class="point"><path d="M29.94,783V100.74H149.7V783Z" style="vector-effect: none; opacity: 1; stroke-width: 0.5px; fill: rgb(0, 51, 102); fill-opacity: 1; stroke: rgb(229, 236, 246); stroke-opacity: 1;"/></g><g class="point"><path d="M329.34,783V39.15H449.1V783Z" style="vector-effect: none; opacity: 1; stroke-width: 0.5px; fill: rgb(0, 51, 102); fill-opacity: 1; stroke: rgb(229, 236, 246); stroke-opacity: 1;"/></g><g class="point"><path d="M628.74,783V72.2H748.5V783Z" style="vector-effect: none; opacity: 1; stroke-width: 0.5px; fill: rgb(0, 51, 102); fill-opacity: 1; stroke: rgb(229, 236, 246); stroke-opacity: 1;"/></g><g class="point"><path d="M928.14,783V153.83H1047.9V783Z" style="vector-effect: none; opacity: 1; stroke-width: 0.5px; fill: rgb(0, 51, 102); fill-opacity: 1; stroke: rgb(229, 236, 246); stroke-opacity: 1;"/></g><g class="point"><path d="M1227.54,783V100.74H1347.3V783Z" style="vector-effect: none; opacity: 1; stroke-width: 0.5px; fill: rgb(0, 51, 102); fill-opacity: 1; stroke: rgb(229, 236, 246); stroke-opacity: 1;"/></g></g></g><g class="trace bars" style="opacity: 1;"><g class="points"><g class="point"><path d="M149.7,783V120.94H269.46V783Z" style="vector-effect: none; opacity: 1; stroke-width: 0.5px; fill: rgb(201, 162, 39); fill-opacity: 1; stroke: rgb(229, 236, 246); stroke-opacity: 1;"/></g><g class="point"><path d="M449.1,783V109.86H568.86V783Z" style="vector-effect: none; opacity: 1; stroke-width: 0.5px; fill: rgb(201, 162, 39); fill-opacity: 1; stroke: rgb(229, 236, 246); stroke-opacity: 1;"/></g><g class="point"><path d="M748.5,783V120.63H868.26V783Z" style="vector-effect: none; opacity: 1; stroke-width: 0.5px; fill: rgb(201, 162, 39); fill-opacity: 1; stroke: rgb(229, 236, 246); stroke-opacity: 1;"/></g><g class="point"><path d="M1047.9,783V113.07H1167.66V783Z" style="vector-effect: none; opacity: 1; stroke-width: 0.5px; fill: rgb(201, 162, 39); fill-opacity: 1; stroke: rgb(229, 236, 246); stroke-opacity: 1;"/></g><g class="point"><path d="M1347.3,783V112.12H1467.06V783Z" style="vector-effect: none; opacity: 1; stroke-width: 0.5px; fill: rgb(201, 162, 39); fill-opacity: 1; stroke: rgb(229, 236, 246); stroke-opacity: 1;"/></g></g></g></g><g class="scatterlayer mlayer"><g class="trace scatter trace21c76a" style="stroke-miterlimit: 2; opacity: 1;"><g class="fills"/><g class="errorbars"><g class="errorbar" style="opacity: 1;"><path class="yerror" d="M144.7,82.21h10m-5,0V159.68m-5,0h10" style="vector-effect: none; stroke-width: 1.5px; stroke: rgb(201, 162, 39); stroke-opacity: 1;"/></g><g class="errorbar" style="opacity: 1;"><path class="yerror" d="M444.1,73.33h10m-5,0V146.38m-5,0h10" style="vector-effect: none; stroke-width: 1.5px; stroke: rgb(201, 162, 39); stroke-opacity: 1;"/></g><g class="errorbar" style="opacity: 1;"><path class="yerror" d="M743.5,83.45h10m-5,0V157.81m-5,0h10" style="vector-effect: none; stroke-width: 1.5px; stroke: rgb(201, 162, 39); stroke-opacity: 1;"/></g><g class="errorbar" style="opacity: 1;"><path class="yerror" d="M1042.9,74.17h10m-5,0V151.97m-5,0h10" style="vector-effect: none; stroke-width: 1.5px; stroke: rgb(201, 162, 39); stroke-opacity: 1;"/></g><g class="errorbar" style="opacity: 1;"><path class="yerror" d="M1342.3,73.37h10m-5,0V150.88m-5,0h10" style="vector-effect: none; stroke-width: 1.5px; stroke: rgb(201, 162, 39); stroke-opacity: 1;"/></g></g><g class="lines"/><g class="points"><path class="point" transform="translate(149.7,120.94)" d="M2.5,0A2.5,2.5 0 1,1 0,-2.5A2.5,2.5 0 0,1 2.5,0Z" style="opacity: 1; stroke-width: 0px; fill: rgb(201, 162, 39); fill-opacity: 1;"/><path class="point" transform="translate(449.1,109.86)" d="M2.5,0A2.5,2.5 0 1,1 0,-2.5A2.5,2.5 0 0,1 2.5,0Z" style="opacity: 1; stroke-width: 0px; fill: rgb(201, 162, 39); fill-opacity: 1;"/><path class="point" transform="translate(748.5,120.63)" d="M2.5,0A2.5,2.5 0 1,1 0,-2.5A2.5,2.5 0 0,1 2.5,0Z" style="opacity: 1; stroke-width: 0px; fill: rgb(201, 162, 39); fill-opacity: 1;"/><path class="point" transform="translate(1047.9,113.07)" d="M2.5,0A2.5,2.5 0 1,1 0,-2.5A2.5,2.5 0 0,1 2.5,0Z" style="opacity: 1; stroke-width: 0px; fill: rgb(201, 162, 39); fill-opacity: 1;"/><path class="point" transform="translate(1347.3,112.12)" d="M2.5,0A2.5,2.5 0 1,1 0,-2.5A2.5,2.5 0 0,1 2.5,0Z" style="opacity: 1; stroke-width: 0px; fill: rgb(201, 162, 39); fill-opacity: 1;"/></g><g class="text"/></g></g></g></g><g class="zerolinelayer-above"/><path class="xlines-above crisp" d="M0,0" style="fill: none;"/><path class="ylines-above crisp" d="M0,0" style="fill: none;"/><g class="overlines-above"/><g class="xaxislayer-above"><g class="xtick"><text text-anchor="middle" x="0" y="859" transform="translate(212.7,0)" style="font-family: 'Open Sans', verdana, arial, sans-serif; font-size: 15px; fill: rgb(0, 0, 0); fill-opacity: 1; white-space: pre;">D1</text></g><g class="xtick"><text text-anchor="middle" x="0" y="859" transform="translate(512.1,0)" style="font-family: 'Open Sans', verdana, arial, sans-serif; font-size: 15px; fill: rgb(0, 0, 0); fill-opacity: 1; white-space: pre;">D2</text></g><g class="xtick"><text text-anchor="middle" x="0" y="859" transform="translate(811.5,0)" style="font-family: 'Open Sans', verdana, arial, sans-serif; font-size: 15px; fill: rgb(0, 0, 0); fill-opacity: 1; white-space: pre;">D3</text></g><g class="xtick"><text text-anchor="middle" x="0" y="859" transform="translate(1110.9,0)" style="font-family: 'Open Sans', verdana, arial, sans-serif; font-size: 15px; fill: rgb(0, 0, 0); fill-opacity: 1; white-space: pre;">D4</text></g><g class="xtick"><text text-anchor="middle" x="0" y="859" transform="translate(1410.3,0)" style="font-family: 'Open Sans', verdana, arial, sans-serif; font-size: 15px; fill: rgb(0, 0, 0); fill-opacity: 1; white-space: pre;">D5</text></g></g><g class="yaxislayer-above"><g class="ytick"><text text-anchor="end" x="62" y="5.25" transform="translate(0,843)" style="font-family: 'Open Sans', verdana, arial, sans-serif; font-size: 15px; fill: rgb(0, 0, 0); fill-opacity: 1; white-space: pre;">0</text></g><g class="ytick"><text text-anchor="end" x="62" y="5.25" style="font-family: 'Open Sans', verdana, arial, sans-serif; font-size: 15px; fill: rgb(0, 0, 0); fill-opacity: 1; white-space: pre;" transform="translate(0,731.5)">0.5</text></g><g class="ytick"><text text-anchor="end" x="62" y="5.25" style="font-family: 'Open Sans', verdana, arial, sans-serif; font-size: 15px; fill: rgb(0, 0, 0); fill-opacity: 1; white-space: pre;" transform="translate(0,620)">1</text></g><g class="ytick"><text text-anchor="end" x="62" y="5.25" style="font-family: 'Open Sans', verdana, arial, sans-serif; font-size: 15px; fill: rgb(0, 0, 0); fill-opacity: 1; white-space: pre;" transform="translate(0,508.51)">1.5</text></g><g class="ytick"><text text-anchor="end" x="62" y="5.25" style="font-family: 'Open Sans', verdana, arial, sans-serif; font-size: 15px; fill: rgb(0, 0, 0); fill-opacity: 1; white-space: pre;" transform="translate(0,397.01)">2</text></g><g class="ytick"><text text-anchor="end" x="62" y="5.25" style="font-family: 'Open Sans', verdana, arial, sans-serif; font-size: 15px; fill: rgb(0, 0, 0); fill-opacity: 1; white-space: pre;" transform="translate(0,285.51)">2.5</text></g><g class="ytick"><text text-anchor="end" x="62" y="5.25" style="font-family: 'Open Sans', verdana, arial, sans-serif; font-size: 15px; fill: rgb(0, 0, 0); fill-opacity: 1; white-space: pre;" transform="translate(0,174.01)">3</text></g><g class="ytick"><text text-anchor="end" x="62" y="5.25" style="font-family: 'Open Sans', verdana, arial, sans-serif; font-size: 15px; fill: rgb(0, 0, 0); fill-opacity: 1; white-space: pre;" transform="translate(0,62.51)">3.5</text></g></g><g class="overaxes-above"/></g></g><g class="polarlayer"/><g class="smithlayer"/><g class="ternarylayer"/><g class="geolayer"/><g class="funnelarealayer"/><g class="pielayer"/><g class="iciclelayer"/><g class="treemaplayer"/><g class="sunburstlayer"/><g class="glimages"/><defs id="topdefs-b0eef7"><g class="clips"/><clipPath id="legendb0eef7"><rect width="288" height="29" x="0" y="0"/></clipPath></defs><g class="layer-above"><g class="imagelayer"/><g class="shapelayer"/></g><g class="infolayer"><g class="legend" pointer-events="all" transform="translate(667.5,15.33999999999999)"><rect class="bg" shape-rendering="crispEdges" style="stroke: rgb(68, 68, 68); stroke-opacity: 1; fill: rgb(0, 0, 0); fill-opacity: 0; stroke-width: 0px;" width="288" height="29" x="0" y="0"/><g class="scrollbox" transform="" clip-path="url(#legendb0eef7)"><g class="groups"><g class="traces" transform="translate(0,14.5)" style="opacity: 1;"><text class="legendtext" text-anchor="start" x="40" y="4.680000000000001" style="font-family: 'Open Sans', verdana, arial, sans-serif; font-size: 12px; fill: rgb(0, 0, 0); fill-opacity: 1; white-space: pre;">demo_prof_01</text><g class="layers" style="opacity: 1;"><g class="legendfill"/><g class="legendlines"/><g class="legendsymbols"><g class="legendpoints"><path class="legendundefined" d="M6,6H-6V-6H6Z" transform="translate(20,0)" style="stroke-width: 0.5px; fill: rgb(0, 51, 102); fill-opacity: 1; stroke: rgb(229, 236, 246); stroke-opacity: 1;"/></g></g></g><rect class="legendtoggle" x="0" y="-9.5" width="130.703125" height="19" style="fill: rgb(0, 0, 0); fill-opacity: 0;"/></g><g class="traces" transform="translate(133.203125,14.5)" style="opacity: 1;"><text class="legendtext" text-anchor="start" x="40" y="4.680000000000001" style="font-family: 'Open Sans', verdana, arial, sans-serif; font-size: 12px; fill: rgb(0, 0, 0); fill-opacity: 1; white-space: pre;">Institutional Mean</text><g class="layers" style="opacity: 1;"><g class="legendfill"/><g class="legendlines"/><g class="legendsymbols"><g class="legendpoints"><path class="legendundefined" d="M6,6H-6V-6H6Z" transform="translate(20,0)" style="stroke-width: 0.5px; fill: rgb(201, 162, 39); fill-opacity: 1; stroke: rgb(229, 236, 246); stroke-opacity: 1;"/></g></g></g><rect class="legendtoggle" x="0" y="-9.5" width="151.421875" height="19" style="fill: rgb(0, 0, 0); fill-opacity: 0;"/></g></g></g><rect class="scrollbar" rx="20" ry="3" width="0" height="0" style="fill: rgb(128, 139, 164); fill-opacity: 1;" x="0" y="0"/></g><g class="g-gtitle"><text class="gtitle" x="80" y="30" text-anchor="start" dy="0em" style="opacity: 1; font-family: 'Open Sans', verdana, arial, sans-serif; font-size: 15px; fill: rgb(0, 0, 0); fill-opacity: 1; white-space: pre;">demo_prof_01 vs Institutional Mean</text></g><g class="g-xtitle"><text class="xtitle" x="811.5" y="887" text-anchor="middle" style="opacity: 1; font-family: 'Open Sans', verdana, arial, sans-serif; font-size: 15px; fill: rgb(0, 0, 0); fill-opacity: 1; white-space: pre;">Dimension</text></g><g class="g-ytitle"><text class="ytitle" transform="rotate(-90,17.71875,451.5)" x="17.71875" y="451.5" text-anchor="middle" style="opacity: 1; font-family: 'Open Sans', verdana, arial, sans-serif; font-size: 15px; fill: rgb(0, 0, 0); fill-opacity: 1; white-space: pre;">Mean Score</text></g></g></svg>